# xmcd CD database file
#
# Track frame offsets:
#	150
#	18127
#	32330
#	54325
#	78145
#	96558
#	122229
#	134105
#	158208
#	184084
#	206112
#	228475
#	250892
#	280456
#	304725
#
# Disc length: 4334 seconds
#
# Revision: 0
# Processed by: cddbd v1.5.1PL0 Copyright (c) Steve Scherf et al.
# Submitted via: CDex 1.51
#
DISCID=cf10ec0f
DTITLE=Kenny G - Greatest Hits
DYEAR=1900
DGENRE=Jazz
TTITLE0=Theme from Dying Young
TTITLE1=Hillary´s Theme
TTITLE2=Song Bird
TTITLE3=Silhouette
TTITLE4=Tradewinds
TTITLE5=Pastel
TTITLE6=Last Night of the Year
TTITLE7=Going Home
TTITLE8=Let go
TTITLE9=Waiting for You
TTITLE10=Forever in Love
TTITLE11=In the Rain
TTITLE12=Sentimental
TTITLE13=Alone
TTITLE14=Homeland
EXTD=
EXTT0=
EXTT1=
EXTT2=
EXTT3=
EXTT4=
EXTT5=
EXTT6=
EXTT7=
EXTT8=
EXTT9=
EXTT10=
EXTT11=
EXTT12=
EXTT13=
EXTT14=
PLAYORDER=
